<?xml version="1.0" encoding="UTF-8"?>
<!DOCTYPE svg PUBLIC "-//W3C//DTD SVG 1.1//EN" "http://www.w3.org/Graphics/SVG/1.1/DTD/svg11.dtd">
<!-- Creator: CorelDRAW -->
<svg xmlns="http://www.w3.org/2000/svg" xml:space="preserve" width="297mm" height="210mm" version="1.1" style="shape-rendering:geometricPrecision; text-rendering:geometricPrecision; image-rendering:optimizeQuality; fill-rule:evenodd; clip-rule:evenodd"
viewBox="0 0 29700 21000"
 xmlns:xlink="http://www.w3.org/1999/xlink"
 xmlns:xodm="http://www.corel.com/coreldraw/odm/2003">
 <defs>
  <style type="text/css">
   <![CDATA[
    .fil2 {fill:#FEFEFE;fill-rule:nonzero}
    .fil1 {fill:#1EAAC9;fill-rule:nonzero}
    .fil0 {fill:#2C3048;fill-rule:nonzero}
   ]]>
  </style>
 </defs>
 <g id="Camada_x0020_1">
  <metadata id="CorelCorpID_0Corel-Layer"/>
  <g id="_1945507833440">
   <path class="fil0" d="M20858.58 11764.68l0 -5643.5c0,-398.54 -212.85,-767.01 -557.92,-966.36l-4887.33 -2821.67c-345.35,-199.35 -770.77,-199.35 -1115.88,0l-4887.29 2821.67c-345.39,199.35 -557.96,567.82 -557.96,966.36l0 5643.5c0,398.5 212.57,766.98 557.96,966.21l4887.29 2821.79c345.11,199.23 770.53,199.23 1115.88,0l4887.33 -2821.79c345.07,-199.23 557.92,-567.71 557.92,-966.21z"/>
   <path class="fil1" d="M19029.99 8320.7c229.41,0 415.39,-185.94 415.39,-415.35l0 -1012.18c0,-370.25 -199.08,-715.32 -519.8,-900.47l-3550.25 -2049.8c-320.73,-185.14 -718.84,-185.14 -1039.88,-0.12l-1743.36 1006.58c-325.62,187.9 -519.8,524.65 -519.8,900.5 0,375.85 194.18,712.44 519.8,900.39l5918.14 3416.6c64.55,37.21 104.52,106.66 104.52,180.96l0 850.43c0,229.42 185.98,415.35 415.24,415.35 229.41,0 415.39,-185.93 415.39,-415.35l0 -850.43c0,-370.29 -199.08,-715.36 -519.8,-900.51l-5918.14 -3416.6c-94.23,-54.29 -104.53,-144.65 -104.53,-180.84 0,-36.34 10.3,-126.66 104.53,-180.96l1743.4 -1006.57c64.6,-37.17 144.38,-37.17 208.98,0l3550.41 2049.92c64.55,37.17 104.52,106.46 104.52,180.92l0 1012.18c0,229.41 185.98,415.35 415.24,415.35z"/>
   <path class="fil2" d="M17118.57 11135.58l-5917.98 -3416.64c-64.44,-37.33 -104.69,-106.62 -104.69,-180.96l0 -850.51c0,-229.26 -185.97,-415.39 -415.23,-415.39 -229.57,0 -415.55,186.13 -415.55,415.39l0 850.51c0,370.01 199.24,715 519.96,900.42l5917.98 3416.76c94.39,54.42 104.53,144.62 104.53,180.96 0,36.31 -10.14,126.51 -104.53,180.97l-1743.52 1006.45c-64.04,36.97 -144.1,37.13 -208.7,-0.16l-3550.25 -2049.37c-64.44,-37.44 -104.69,-106.77 -104.69,-181.23l0 -1012.42c0,-229.41 -185.97,-415.39 -415.23,-415.39 -229.57,0 -415.55,185.98 -415.55,415.39l0 1012.42c0,370.17 199.24,715.24 519.96,900.66l3550.37 2049.49c160.52,92.41 340.22,138.62 520.08,138.62 179.73,0 359.43,-46.21 519.52,-138.62l1743.52 -1006.34c325.34,-188.02 519.8,-524.77 519.8,-900.47 0,-375.85 -194.46,-712.44 -519.8,-900.54z"/>
   <path class="fil1" d="M4211.33 18270.25c107.41,65.82 198.75,111.47 274.04,138.23 74.86,26.36 148.1,39.5 219.71,39.5 71.98,0 130.02,-16.02 174.02,-47.71 43.6,-31.69 65.42,-72.41 65.42,-122.21 0,-71.18 -77.77,-151.84 -233.67,-240.7 -25.1,-14.4 -44.44,-25.92 -58.05,-33.74l-118.06 -66.64c-114.79,-64.99 -199.94,-138.66 -255.11,-220.54 -55.52,-81.88 -83.1,-174.85 -83.1,-278.55 0,-140.71 53.07,-255.89 159.22,-346.02 105.75,-90.08 242.75,-134.95 410.61,-134.95 62.15,0 129.2,7.42 201.21,21.82 72.41,14.4 152.63,37.02 241.1,67.48l0 409.39c-84.33,-52.68 -164.16,-93.4 -239.88,-122.21 -75.68,-28.8 -139.88,-43.2 -192.96,-43.2 -58.83,0 -104.92,12.74 -138.66,37.84 -33.73,25.09 -50.58,59.66 -50.58,102.87 0,30.46 9.86,58.83 30.03,85.15 20.16,26.76 50.19,50.63 90.52,72.45l204.87 113.13c171.57,95.06 286.79,182.66 346.02,262.92 59.27,80.61 88.9,175.67 88.9,285.92 0,170.35 -58.04,308.18 -174.05,413.1 -116.45,104.93 -270.3,157.17 -462.47,157.17 -64.99,0 -135.78,-6.98 -212.29,-20.56 -76.12,-13.61 -160.44,-35 -251.79,-63.8l-35 -466.14zm1438.81 493.72l0 -1747.78 1076.34 0 0 360.42 -671.49 0 0 315.99 575.2 0 0 357.94 -575.2 0 0 345.59 681.35 0 0 367.84 -1086.2 0zm182.7 -1940.34l226.69 -419.66 262.49 0 226.73 419.66 -158 0 -199.98 -254.28 -202.42 254.28 -155.51 0zm1221.54 1940.34l0 -1804.56 39.94 0 1088.25 1019.95 0 -963.17 385.09 0 0 1814.43 -36.19 0 -1091.96 -1019.95 0 953.3 -385.13 0zm1917.74 0l0 -1747.78 417.16 0 0 1747.78 -417.16 0zm1145.39 -873.91c0,151.84 44.43,279.37 133.33,381.85 88.86,102.44 198.28,153.85 328.3,153.85 130.85,0 240.71,-51.02 329.17,-153.06 88.47,-102.44 132.47,-229.97 132.47,-382.64 0,-153.46 -44,-281.82 -132.47,-384.26 -88.46,-102.47 -198.32,-153.89 -329.17,-153.89 -130.02,0 -239.44,51.42 -328.3,153.89 -88.9,102.44 -133.33,230.8 -133.33,384.26zm-429.52 0c0,-129.59 22.22,-250.57 67.04,-363.26 44.43,-113.17 110.29,-213.95 197.1,-303.25 81.88,-85.15 177.33,-150.58 285.93,-195.84 108.23,-45.69 222.19,-68.3 341.08,-68.3 118.93,0 232.89,23.04 341.92,68.7 109.03,45.69 205.7,111.9 290.07,197.89 85.15,86.02 149.75,185.18 193.39,298.31 43.99,112.73 65.82,234.94 65.82,365.75 0,109.46 -15.24,212.33 -45.7,308.61 -30.86,96.24 -76.12,184.32 -136.57,264.14 -85.19,113.13 -189.68,201.17 -313.94,263.71 -124.26,62.94 -255.89,94.23 -394.99,94.23 -118.06,0 -231.23,-23.04 -339.43,-68.7 -108.2,-45.69 -204.08,-111.91 -287.58,-197.93 -86.81,-88.86 -152.67,-189.64 -197.1,-301.98 -44.82,-111.91 -67.04,-232.89 -67.04,-362.08zm2546.79 -555.43l-68.73 0 0 483.85 88.07 0c105.32,0 185.54,-21.39 241.1,-63.77 55.56,-42.38 83.1,-103.7 83.1,-183.09 0,-83.53 -26.75,-143.59 -80.66,-181.04 -53.86,-37.45 -141.5,-55.95 -262.88,-55.95zm-473.59 1429.34l0 -1747.78 449.33 0c143.99,0 255.5,9.47 334.89,28.37 79.39,18.94 149.35,50.19 210.67,94.62 64.99,46.53 115.58,104.1 151.41,172.84 35.79,68.7 53.47,141.1 53.47,217.22 0,110.25 -27.98,206.53 -83.93,289.24 -55.96,82.71 -136.61,147.3 -241.93,194.22l533.22 751.27 -476.44 0 -466.57 -686.28 -59.26 0 0 686.28 -404.86 0zm2207.37 -493.72c107.41,65.82 198.75,111.47 274.04,138.23 74.86,26.36 148.09,39.5 219.71,39.5 71.98,0 130.02,-16.02 174.02,-47.71 43.6,-31.69 65.42,-72.41 65.42,-122.21 0,-71.18 -77.77,-151.84 -233.68,-240.7 -25.09,-14.4 -44.43,-25.92 -58.04,-33.74l-118.06 -66.64c-114.79,-64.99 -199.94,-138.66 -255.11,-220.54 -55.52,-81.88 -83.1,-174.85 -83.1,-278.55 0,-140.71 53.07,-255.89 159.22,-346.02 105.75,-90.08 242.75,-134.95 410.61,-134.95 62.15,0 129.19,7.42 201.21,21.82 72.41,14.4 152.63,37.02 241.1,67.48l0 409.39c-84.33,-52.68 -164.16,-93.4 -239.88,-122.21 -75.68,-28.8 -139.88,-43.2 -192.96,-43.2 -58.83,0 -104.92,12.74 -138.66,37.84 -33.73,25.09 -50.58,59.66 -50.58,102.87 0,30.46 9.86,58.83 30.02,85.15 20.17,26.76 50.2,50.63 90.52,72.45l204.88 113.13c171.57,95.06 286.79,182.66 346.02,262.92 59.27,80.61 88.9,175.67 88.9,285.92 0,170.35 -58.04,308.18 -174.05,413.1 -116.45,104.93 -270.3,157.17 -462.47,157.17 -64.99,0 -135.78,-6.98 -212.29,-20.56 -76.12,-13.61 -160.44,-35 -251.79,-63.8l-35 -466.14zm1443.78 493.72l0 -1747.78 417.17 0 0 1747.78 -417.17 0zm745.47 -493.72c107.41,65.82 198.76,111.47 274.04,138.23 74.86,26.36 148.1,39.5 219.72,39.5 71.97,0 130.01,-16.02 174.01,-47.71 43.6,-31.69 65.43,-72.41 65.43,-122.21 0,-71.18 -77.78,-151.84 -233.68,-240.7 -25.1,-14.4 -44.43,-25.92 -58.05,-33.74l-118.06 -66.64c-114.79,-64.99 -199.94,-138.66 -255.11,-220.54 -55.52,-81.88 -83.1,-174.85 -83.1,-278.55 0,-140.71 53.07,-255.89 159.22,-346.02 105.75,-90.08 242.76,-134.95 410.62,-134.95 62.14,0 129.19,7.42 201.2,21.82 72.41,14.4 152.63,37.02 241.1,67.48l0 409.39c-84.33,-52.68 -164.15,-93.4 -239.88,-122.21 -75.68,-28.8 -139.88,-43.2 -192.95,-43.2 -58.84,0 -104.93,12.74 -138.66,37.84 -33.74,25.09 -50.59,59.66 -50.59,102.87 0,30.46 9.86,58.83 30.03,85.15 20.16,26.76 50.19,50.63 90.52,72.45l204.87 113.13c171.57,95.06 286.79,182.66 346.02,262.92 59.27,80.61 88.9,175.67 88.9,285.92 0,170.35 -58.04,308.18 -174.05,413.1 -116.45,104.93 -270.3,157.17 -462.47,157.17 -64.99,0 -135.78,-6.98 -212.29,-20.56 -76.12,-13.61 -160.44,-35 -251.79,-63.8l-35 -466.14zm1794.3 493.72l0 -1382.43 -555.43 0 0 -365.35 1525.62 0 0 365.35 -552.98 0 0 1382.43 -417.21 0zm1170.53 0l0 -1747.78 1076.33 0 0 360.42 -671.48 0 0 315.99 575.2 0 0 357.94 -575.2 0 0 345.59 681.35 0 0 367.84 -1086.2 0zm1261.08 0l362.87 -1804.56 30.07 0 659.53 1138.05 622.08 -1138.05 31.29 0 365.35 1804.56 -396.64 0 -148.13 -798.19 -469.02 862.39 -27.98 0 -503.62 -874.3 -153.46 810.1 -372.34 0zm2705.19 -555.43l459.15 0 -226.7 -547.23 -232.45 547.23zm-654.2 555.43l891.59 -1802.12 26.32 0 871.85 1802.12 -436.54 0 -110.68 -254.28 -709.32 0 -113.13 254.28 -420.09 0zm1932.09 -493.72c107.41,65.82 198.76,111.47 274.05,138.23 74.86,26.36 148.09,39.5 219.71,39.5 71.98,0 130.02,-16.02 174.02,-47.71 43.6,-31.69 65.42,-72.41 65.42,-122.21 0,-71.18 -77.77,-151.84 -233.68,-240.7 -25.09,-14.4 -44.43,-25.92 -58.04,-33.74l-118.07 -66.64c-114.78,-64.99 -199.94,-138.66 -255.1,-220.54 -55.52,-81.88 -83.1,-174.85 -83.1,-278.55 0,-140.71 53.07,-255.89 159.22,-346.02 105.75,-90.08 242.75,-134.95 410.61,-134.95 62.15,0 129.19,7.42 201.21,21.82 72.4,14.4 152.63,37.02 241.09,67.48l0 409.39c-84.32,-52.68 -164.15,-93.4 -239.87,-122.21 -75.68,-28.8 -139.88,-43.2 -192.96,-43.2 -58.83,0 -104.92,12.74 -138.66,37.84 -33.74,25.09 -50.59,59.66 -50.59,102.87 0,30.46 9.87,58.83 30.03,85.15 20.17,26.76 50.2,50.63 90.52,72.45l204.88 113.13c171.57,95.06 286.79,182.66 346.02,262.92 59.27,80.61 88.9,175.67 88.9,285.92 0,170.35 -58.05,308.18 -174.06,413.1 -116.44,104.93 -270.29,157.17 -462.46,157.17 -64.99,0 -135.78,-6.98 -212.29,-20.56 -76.12,-13.61 -160.45,-35 -251.79,-63.8l-35.01 -466.14z"/>
  </g>
 </g>
</svg>
